<?xml version="1.0" encoding="UTF-8"?>
<!-- Generator: Adobe Illustrator 14.0.0, SVG Export Plug-In . SVG Version: 6.00 Build 43363)  -->
<!DOCTYPE svg PUBLIC "-//W3C//DTD SVG 1.0//EN" "http://www.w3.org/TR/2001/REC-SVG-20010904/DTD/svg10.dtd">
<svg version="1.0" id="Layer_1" xmlns="http://www.w3.org/2000/svg" xmlns:xlink="http://www.w3.org/1999/xlink" x="0px" y="0px" width="88.0078125px" height="109.6088867px" viewBox="0 0 88.0078125 109.6088867" enable-background="new 0 0 88.0078125 109.6088867" xml:space="preserve">
<g>
	<g>
		<path fill="#029346" d="M88.0078125,102.5219727c0,3.8974609-3.1894531,7.0869141-7.0869141,7.0869141H7.0864258    C3.1889648,109.6088867,0,106.4194336,0,102.5219727V7.0864258C0,3.1889648,3.1889648,0,7.0864258,0h73.8344727    c3.8974609,0,7.0869141,3.1889648,7.0869141,7.0864258V102.5219727z"/>
	</g>
	<text transform="matrix(1 0 0 1 1.7480469 100.8374023)" fill="#FFFFFF" font-family="'DejaVuSans-Bold'" font-size="19.541605">RepRap</text>
	<path fill="#FFFFFF" d="M44.0039063,17.8920898L26.859375,35.0375977   c-4.3876953,4.3876953-7.1025391,10.4482422-7.1025391,17.1445313c0,13.3916016,10.8564453,24.2470703,24.2470703,24.2470703   s24.2470703-10.8554688,24.2470703-24.2470703c0-6.6953125-2.7138672-12.7568359-7.1015625-17.144043L44.0039063,17.8920898z"/>
</g>
</svg>